/* XPM */
static char *_4690abc6a6844049a141cfa7e4ac8798MQ5hp1RwO6nJzLB[] = {
/* columns rows colors chars-per-pixel */
"32 32 8 1 ",
"  c #3E2723",
". c #4E342E",
"X c #6D4C41",
"o c #8D6E63",
"O c #EF5350",
"+ c #3F51B5",
"@ c #00BCD4",
"# c #2196F3",
/* pixels */
"XXXXXXXoXXXXXXXXXXXXXoXXXXXXXXXX",
"XXXXXXXoXXXXXXXXXXXXXoXXXXXXXXXX",
"XXXXXXXoXXXXXXXXXXXXXoXXXXXXXXXX",
"oooooooooooooooooooooooooooooooo",
"XoXXXXXXXXXXXXXXXXXXXXXXXXXXoXXX",
"XoXXXXXXXXXXXXXXXXXXXXXXXXXXoXXX",
"XoXXXXXXXXXXXXXXXXXXXXXXXXXXoXXX",
"XoXXXXXXXXXXXXXXXXXXXXXXXXXXoXXX",
"ooooooooooo+O+++++O+++oooooooooo",
"XXXXXXXoXX+O##O######++XXXXXXXXX",
"XXXXXXXoXO++@@@@O@@O+#O+XXXXXXXX",
"XXXXXXXo+++O###O######+++XXXXXXX",
"XXXXXXXo  +++O+++++O++O  XXXXXXX",
"ooooooooo               oooooooo",
"XoXXXXXXX  . . . . . .  XXXXoXXX",
"XoXXXXXXX  . . . . . .  XXXXoXXX",
"XoXXXXXXXX . . . . . . XXXXXoXXX",
"XoXXXXXXXX . . . . . . XXXXXoXXX",
"oooooooooo             ooooooooo",
"XXXXXXXoXXXXXXXXXXXXXoXXXXXXXXXX",
"XXXXXXXoXXXXXXXXXXXXXoXXXXXXXXXX",
"XXXXXXXoXXXXXXXXXXXXXoXXXXXXXXXX",
"XXXXXXXoXXXXXXXXXXXXXoXXXXXXXXXX",
"oooooooooooooooooooooooooooooooo",
"XoXXXXXXXXXXXXXXXXXXXXXXXXXXoXXX",
"XoXXXXXXXXXXXXXXXXXXXXXXXXXXoXXX",
"XoXXXXXXXXXXXXXXXXXXXXXXXXXXoXXX",
"XoXXXXXXXXXXXXXXXXXXXXXXXXXXoXXX",
"oooooooooooooooooooooooooooooooo",
"XXXXXXXoXXXXXXXXXXXXXoXXXXXXXXXX",
"XXXXXXXoXXXXXXXXXXXXXoXXXXXXXXXX",
"XXXXXXXoXXXXXXXXXXXXXoXXXXXXXXXX"
};
