/* XPM */
static char *e5934910bd744c6af432b595d09ab73eJLR27nN0Sj2vIQIh[] = {
/* columns rows colors chars-per-pixel */
"32 32 14 1 ",
"  c black",
". c #0B3B08",
"X c #211F21",
"o c gray13",
"O c #3E2723",
"+ c #4E342E",
"@ c #5D4037",
"# c gray26",
"$ c #6D4C41",
"% c #8D6E63",
"& c #FFB74D",
"* c gray62",
"= c #FFCCBC",
"- c #FFF8E1",
/* pixels */
"$$$$$$$%$$$$$$$$$$$*$%$$$$$$$$$$",
"$$$$$$$%$$$$$$$$$$*$$%$$$$$$$$$$",
"$$$$$$$%$$$$$$$$$$$$*%$$$$$$$$$$",
"%%%%%%%%%%%%+++O++%*%%%%%%%%%%%%",
"$%$$$$$$$$$+O$++$@*$$$$$$$$%$$$$",
"$%$$$$$$$$+$+@O@++O*$$$$$$$%$$$$",
"$%$$$$$$$$+++=++=+++*$$$$$$%$$$$",
"$%$$$$$$$$$+=.==.=+*$$$$$$$%$$$$",
"%%%%%%%%%%+=======*+%%%%%%%%%%%%",
"$$$$$$$%$$+O===&--++$%$$$$$$$$$$",
"$$$$$$$%$$$$+$XX$@$$$%$$$$$$$$$$",
"$$$$$$$%$$$   XX   $$%$$$$$$$$$$",
"$$$$$$$%$$    XX    $%$$$$$$$$$$",
"%%%%%%%%%     XX     %%%%%%%%%%%",
"$%$$$$$$$  $  XX  $  $$$$$$%$$$$",
"$%$$$$$$$  $  XX  $  $$$$$$%$$$$",
"$%$$$$$$$  $  XX  $  $$$$$$%$$$$",
"$%$$$$$$$  $  XX  $  $$$$$$%$$$$",
"%%%%%%%%%==%  ##  %==%%%%%%%%%%%",
"$$$$$$$%$==$  oo  $==%$$$$$$$$$$",
"$$$$$$$%$$$$  oo  $$$%$$$$$$$$$$",
"$$$$$$$%$$$$  $$  $$$%$$$$$$$$$$",
"$$$$$$$%$$$$ o$$o $$$%$$$$$$$$$$",
"%%%%%%%%%%%%oo%%oo%%%%%%%%%%%%%%",
"$%$$$$$$$$$$oo$$oo$$$$$$$$$%$$$$",
"$%$$$$$$$$$$oo$$oo$$$$$$$$$%$$$$",
"$%$$$$$$$$$   $$   $$$$$$$$%$$$$",
"$%$$$$$$$$    $$    $$$$$$$%$$$$",
"%%%%%%%%%%   %%%%   %%%%%%%%%%%%",
"$$$$$$$%$$$$$$$$$$$$$%$$$$$$$$$$",
"$$$$$$$%$$$$$$$$$$$$$%$$$$$$$$$$",
"$$$$$$$%$$$$$$$$$$$$$%$$$$$$$$$$"
};
