/* XPM */
static char *result[] = {
/* columns rows colors chars-per-pixel */
"32 32 115 2 ",
"   c black",
".  c #010101",
"X  c #010102",
"o  c #010202",
"O  c #020202",
"+  c #020203",
"@  c #030203",
"#  c #020303",
"$  c gray1",
"%  c #030304",
"&  c #050405",
"*  c gray2",
"=  c #050506",
"-  c #060406",
";  c #060506",
":  c #070507",
">  c #050606",
",  c #050607",
"<  c #060607",
"1  c #060708",
"2  c #070708",
"3  c #080508",
"4  c #080608",
"5  c #0A060A",
"6  c #0B070B",
"7  c gray3",
"8  c #0B080B",
"9  c #0B090C",
"0  c #0B0B0D",
"q  c #0B0B0E",
"w  c #0A0A0F",
"e  c #0B0C0E",
"r  c #0C0C0F",
"t  c #0C0D0F",
"y  c #0D0E10",
"u  c #0E0E10",
"i  c #0F0F10",
"p  c #0F0E11",
"a  c #0E0F11",
"s  c #0F0F11",
"d  c #0F0F12",
"f  c #100F11",
"g  c #110F13",
"h  c #0E1011",
"j  c #0F1012",
"k  c #101012",
"l  c #111013",
"z  c #121113",
"x  c #111115",
"c  c #111215",
"v  c #131316",
"b  c #121317",
"n  c #131317",
"m  c #141316",
"M  c #151316",
"N  c #151217",
"B  c #141317",
"V  c #151317",
"C  c #121416",
"Z  c #121417",
"A  c #131417",
"S  c #121517",
"D  c #131517",
"F  c #141416",
"G  c #151516",
"H  c #141417",
"J  c #151417",
"K  c #141517",
"L  c #151517",
"P  c #161517",
"I  c #151617",
"U  c gray9",
"Y  c #121318",
"T  c #131318",
"R  c #141318",
"E  c #171318",
"W  c #171319",
"Q  c #121418",
"!  c #131418",
"~  c #141418",
"^  c #151418",
"/  c #141518",
"(  c #151518",
")  c #151519",
"_  c #161418",
"`  c #171418",
"'  c #161518",
"]  c #171518",
"[  c #161419",
"{  c #171419",
"}  c #161519",
"|  c #171519",
" . c #151618",
".. c #151619",
"X. c #161618",
"o. c #171618",
"O. c #161718",
"+. c #171718",
"@. c #161619",
"#. c #171619",
"$. c #171719",
"%. c #14141B",
"&. c #16171A",
"*. c #17171A",
"=. c #181718",
"-. c #181619",
";. c #181719",
":. c #191719",
">. c #171818",
",. c #171819",
"<. c #181818",
"1. c #181819",
"2. c #191819",
"3. c #181919",
"4. c #191919",
/* pixels */
"                    g ( v v #.J #.{ @.| ( m -                   ",
"                    v (   $.$.$.[ W #.@.} ( 5   a             # ",
"                    v   $.+.o.4.4.} #.$.@.( - # , Z             ",
"          X , L   / c | o.<.4.4.@.} #.#.@.( O N #               ",
"      . &.w .   . 2 ' { 2.<.1.4.4.2.4.$.$.$.) ~ 2 . 0 0         ",
"      ; .   # D c @.J 7 4.@.4.4.4.4.4.<.#.$.( T ~ $ $ . o       ",
"  @ -   1 S C D / @.4.1.( 4.4.4.$.1.<.<.2.4. .O.~ T $ $       # ",
"3 @   v b  .B  .O.3.1.@.$.4.$.1.4.4.<.<.#.4.1.( L / T : : 4 - + ",
"- s v t C ^ H  .A <.4.4.4.$.( 1.D  .4.$.1.4.4.4.I P H 9 H       ",
"( - . #.n ( K o.A <.4.4.4.$.D  .<.*.4.4.4.4.4.<.4.` J ^ F v m - ",
"  u #.#.#.+.' +.L 4.4.$.4.D / 1./ / D  .$.@.4.4.<.,.+.( v       ",
"  #.#.1.#.#.X.<.4.4.$.$.X.D ( / / / / D / 4.4.4.4.<.F @.1.| #.F ",
"| #.1.#.#.4.4.4.4.4.4.C T %./ / / / / /  .D 4.<.X.<.4.1.#.$.#.#.",
"#.#.#.#.4.4.4.4.4.4.D X.C Y A / / / / Z D 4.X.( <.<.| E 4.@.;.#.",
"#.@.@.4.4.4.4.4.2.4.<.D S A ! Y / / b 1.1.T U D 4.$.4.4.4.4.$.1.",
"@.@.] | 4.4.4.4.4.4.4.A A ! S A Q ! Y ! / A A X.C 4.4.4.4.4.4.1.",
"#.1.| | 4.4.4.4.4.2.$.4./ / D D ! ! D A A ! n A D 4.4.4.4.4.1.@.",
"@.] #.;.1.<.4.4.@.D 4.$./ A / / / / A / n A A D 4.4.4.4.4.#.#.#.",
"v ] 1.@.@.#.4.1.1.<.D C S / / / / / / A A A 4.$.4.4.4.4.<.#.#.#.",
"- 6 #.@.1.1.=./ >.4.D K D A / / / / / A / ~ $.4.4.4.<.<.#.#.1.1.",
"( ( f #.#.{ R -.4.4.4.:.D b S / / / / T ~ X.4.D D <.+.X.4.4.1.#.",
"  v ^ ' ' ..Z 3./ <.:.4. .4.X.K / ~ T $.$.D Z D <.<.$.4.4.^ #.@.",
"  $ O ^ 9 ' ( ( @.<.:.4.4.4.K K ( 1.$. .A D <.<.<.$.4.<.1.l f @.",
"% $ . O e / / A b b $.' 4.4.4.4.1.4. . .4.4.4.G $.4.<.2.* h & 4.",
"r = . 2   j < j y 4.@.$.4.4.4.4.4.4.4.4.4.4.i $.m @.$ 8 X k   4.",
"O   t       q > / / 1.1.4.4.4.4.4.4.4.4.<.U #.#.@._ ( v v       ",
"              . + d G #.4.<.4.4.4.4.4.4.U #.1.4.4.} v u u       ",
"              a a ..9 B 1.4.<.4.4.4.4.X.@.| #.#.@.v             ",
"                  v v ^ +.4.#.4.4.4.#.$.@.#.#.#.u -             ",
"b                   v v ^ ( ;.4.<.1.#.4.4.#.#.M -               ",
"O .                   u v } V #.#.$.1.<.1.#.M 3   v v y         ",
"  o o               A     v B ( ) #.  p F z :   v v   x $       "
};
