/* XPM */
static char *_b5906e6e9e84133846df185dc58dcf1cTIc3FrGN6oKBvZq[] = {
/* columns rows colors chars-per-pixel */
"32 32 7 1 ",
"  c gray13",
". c gray26",
"X c #6D4C41",
"o c gray38",
"O c gray46",
"+ c #8D6E63",
"@ c gray62",
/* pixels */
"XXXXXXX                   XXXXXX",
"XXXXXXX ooo...........ooo XXXXXX",
"XXXXXXX o@.............@o XXXXXX",
"+++++++ o...............o ++++++",
"X+XXXXX ................. XX+XXX",
"X+XXXXX ................. XX+XXX",
"X+XXXXX ................. XX+XXX",
"X+XXXXX ................. XX+XXX",
"+++++++ ................. ++++++",
"XXXXXXX ................. XXXXXX",
"XXXXXXX ................. XXXXXX",
"XXXXXXX ................. XXXXXX",
"XXXXXXX .............OO.. XXXXXX",
"+++++++ @.........@..OO.@ ++++++",
"X+XXXXX @..........@@@ .@ XX+XXX",
"X+XXXXX @............OO.@ XX+XXX",
"X+XXXXX .............OO.. XX+XXX",
"X+XXXXX ................. XX+XXX",
"+++++++ ................. ++++++",
"XXXXXXX ................. XXXXXX",
"XXXXXXX ................. XXXXXX",
"XXXXXXX ................. XXXXXX",
"XXXXXXX ................. XXXXXX",
"+++++++ ................. ++++++",
"X+XXXXX ................. XX+XXX",
"X+XXXXX ................. XX+XXX",
"X+XXXXX ................. XX+XXX",
"X+XXXXX ................. XX+XXX",
"+++++++ o...............o ++++++",
"XXXXXXX o@.............@o XXXXXX",
"XXXXXXX ooo...........ooo XXXXXX",
"XXXXXXX                   XXXXXX"
};
